<mxfile host="app.diagrams.net" modified="2023-04-03T09:45:17.899Z" agent="Mozilla/5.0 (Macintosh; Intel Mac OS X 10_15_7) AppleWebKit/537.36 (KHTML, like Gecko) Chrome/111.0.0.0 Safari/537.36" etag="xUQUenG35tBRX96MjTe0" version="21.1.3" type="github">
  <diagram name="Page-1" id="2ukNFJZdqEw4KGF9uxTm">
    <mxGraphModel dx="1864" dy="566" grid="1" gridSize="10" guides="1" tooltips="1" connect="1" arrows="1" fold="1" page="1" pageScale="1" pageWidth="827" pageHeight="1169" math="0" shadow="0">
      <root>
        <mxCell id="0" />
        <mxCell id="1" parent="0" />
        <mxCell id="FrllIYIqwDFJwszf7kwl-4" value="" style="rounded=0;whiteSpace=wrap;html=1;fontSize=10;fillColor=#FFFFFF;container=0;" vertex="1" parent="1">
          <mxGeometry x="-827" width="840" height="1130" as="geometry" />
        </mxCell>
        <mxCell id="FrllIYIqwDFJwszf7kwl-5" value="Start" style="strokeWidth=2;html=1;shape=mxgraph.flowchart.start_1;whiteSpace=wrap;fontSize=10;container=0;" vertex="1" parent="1">
          <mxGeometry x="-667" y="40" width="60" height="30" as="geometry" />
        </mxCell>
        <mxCell id="FrllIYIqwDFJwszf7kwl-6" value="upload attachment" style="rounded=1;whiteSpace=wrap;html=1;absoluteArcSize=1;arcSize=14;strokeWidth=2;fontSize=10;container=0;" vertex="1" parent="1">
          <mxGeometry x="-687" y="100" width="100" height="30" as="geometry" />
        </mxCell>
        <mxCell id="FrllIYIqwDFJwszf7kwl-7" style="edgeStyle=none;rounded=0;sketch=0;orthogonalLoop=1;jettySize=auto;html=1;entryX=0.5;entryY=0;entryDx=0;entryDy=0;fontSize=10;endArrow=classic;endFill=1;" edge="1" parent="1" source="FrllIYIqwDFJwszf7kwl-5" target="FrllIYIqwDFJwszf7kwl-6">
          <mxGeometry relative="1" as="geometry" />
        </mxCell>
        <mxCell id="FrllIYIqwDFJwszf7kwl-9" style="edgeStyle=none;rounded=0;sketch=0;orthogonalLoop=1;jettySize=auto;html=1;fontSize=10;endArrow=classic;endFill=1;" edge="1" parent="1" source="FrllIYIqwDFJwszf7kwl-6" target="FrllIYIqwDFJwszf7kwl-11">
          <mxGeometry relative="1" as="geometry">
            <mxPoint x="-637" y="190" as="targetPoint" />
          </mxGeometry>
        </mxCell>
        <mxCell id="FrllIYIqwDFJwszf7kwl-10" value="" style="edgeStyle=orthogonalEdgeStyle;rounded=0;sketch=0;orthogonalLoop=1;jettySize=auto;html=1;fontSize=10;endArrow=classic;endFill=1;entryX=0.5;entryY=0;entryDx=0;entryDy=0;" edge="1" parent="1" source="FrllIYIqwDFJwszf7kwl-11" target="FrllIYIqwDFJwszf7kwl-59">
          <mxGeometry relative="1" as="geometry">
            <mxPoint x="-502" y="370" as="targetPoint" />
          </mxGeometry>
        </mxCell>
        <mxCell id="FrllIYIqwDFJwszf7kwl-11" value="Save into NFS" style="rounded=1;whiteSpace=wrap;html=1;absoluteArcSize=1;arcSize=14;strokeWidth=2;fontSize=10;fillColor=#FFFFFF;container=0;" vertex="1" parent="1">
          <mxGeometry x="-685.5" y="160" width="97" height="30" as="geometry" />
        </mxCell>
        <mxCell id="FrllIYIqwDFJwszf7kwl-14" value="Consume migration event Kafka topic with ANID" style="whiteSpace=wrap;html=1;fontSize=10;fillColor=#FFFFFF;rounded=1;arcSize=14;strokeWidth=2;container=0;" vertex="1" parent="1">
          <mxGeometry x="-350" y="460" width="110" height="40" as="geometry" />
        </mxCell>
        <mxCell id="FrllIYIqwDFJwszf7kwl-15" value="Map to Certification Service POJO" style="rounded=1;whiteSpace=wrap;html=1;absoluteArcSize=1;arcSize=14;strokeWidth=2;fontSize=10;fillColor=#FFFFFF;container=0;" vertex="1" parent="1">
          <mxGeometry x="-557" y="460" width="110" height="40" as="geometry" />
        </mxCell>
        <mxCell id="FrllIYIqwDFJwszf7kwl-16" value="" style="endArrow=classic;html=1;rounded=0;shadow=0;sketch=0;fontSize=10;entryX=0.5;entryY=0;entryDx=0;entryDy=0;exitX=0.5;exitY=1;exitDx=0;exitDy=0;" edge="1" parent="1" source="FrllIYIqwDFJwszf7kwl-29" target="FrllIYIqwDFJwszf7kwl-15">
          <mxGeometry width="50" height="50" relative="1" as="geometry">
            <mxPoint x="-502" y="370" as="sourcePoint" />
            <mxPoint x="-307" y="280" as="targetPoint" />
          </mxGeometry>
        </mxCell>
        <mxCell id="FrllIYIqwDFJwszf7kwl-17" value="" style="endArrow=classic;html=1;rounded=0;shadow=0;sketch=0;fontSize=10;entryX=0.5;entryY=0;entryDx=0;entryDy=0;exitX=0.5;exitY=1;exitDx=0;exitDy=0;" edge="1" parent="1" source="FrllIYIqwDFJwszf7kwl-29" target="FrllIYIqwDFJwszf7kwl-14">
          <mxGeometry width="50" height="50" relative="1" as="geometry">
            <mxPoint x="-497" y="370" as="sourcePoint" />
            <mxPoint x="-217" y="340" as="targetPoint" />
          </mxGeometry>
        </mxCell>
        <mxCell id="FrllIYIqwDFJwszf7kwl-19" style="edgeStyle=orthogonalEdgeStyle;rounded=0;sketch=0;orthogonalLoop=1;jettySize=auto;html=1;entryX=0.5;entryY=0;entryDx=0;entryDy=0;shadow=0;fontSize=10;endArrow=classic;endFill=1;exitX=0;exitY=0.5;exitDx=0;exitDy=0;exitPerimeter=0;" edge="1" parent="1" source="FrllIYIqwDFJwszf7kwl-54" target="FrllIYIqwDFJwszf7kwl-33">
          <mxGeometry relative="1" as="geometry">
            <Array as="points">
              <mxPoint x="-780" y="328" />
              <mxPoint x="-780" y="550" />
              <mxPoint x="-637" y="550" />
            </Array>
            <mxPoint x="-712" y="230" as="sourcePoint" />
            <mxPoint x="-687" y="560" as="targetPoint" />
          </mxGeometry>
        </mxCell>
        <mxCell id="FrllIYIqwDFJwszf7kwl-20" style="edgeStyle=orthogonalEdgeStyle;rounded=0;sketch=0;orthogonalLoop=1;jettySize=auto;html=1;entryX=0.5;entryY=0;entryDx=0;entryDy=0;shadow=0;fontSize=10;endArrow=classic;endFill=1;exitX=0.5;exitY=1;exitDx=0;exitDy=0;" edge="1" parent="1" source="FrllIYIqwDFJwszf7kwl-15" target="FrllIYIqwDFJwszf7kwl-33">
          <mxGeometry relative="1" as="geometry">
            <mxPoint x="-577" y="560" as="targetPoint" />
            <Array as="points">
              <mxPoint x="-502" y="550" />
              <mxPoint x="-637" y="550" />
            </Array>
          </mxGeometry>
        </mxCell>
        <mxCell id="FrllIYIqwDFJwszf7kwl-21" value="Upload certification file to attachment" style="whiteSpace=wrap;html=1;fontSize=10;fillColor=#FFFFFF;rounded=1;arcSize=14;strokeWidth=2;container=0;" vertex="1" parent="1">
          <mxGeometry x="-147" y="707" width="110" height="40" as="geometry" />
        </mxCell>
        <mxCell id="FrllIYIqwDFJwszf7kwl-22" style="edgeStyle=orthogonalEdgeStyle;rounded=0;sketch=0;orthogonalLoop=1;jettySize=auto;html=1;shadow=0;fontSize=10;endArrow=classic;endFill=1;exitX=1;exitY=0.5;exitDx=0;exitDy=0;exitPerimeter=0;" edge="1" parent="1" source="FrllIYIqwDFJwszf7kwl-23" target="FrllIYIqwDFJwszf7kwl-21">
          <mxGeometry relative="1" as="geometry">
            <mxPoint x="-92" y="585" as="sourcePoint" />
          </mxGeometry>
        </mxCell>
        <mxCell id="FrllIYIqwDFJwszf7kwl-23" value="Find any certification &lt;br&gt;belongs to current user in Certification Service" style="strokeWidth=2;html=1;shape=mxgraph.flowchart.decision;whiteSpace=wrap;fontSize=10;container=0;" vertex="1" parent="1">
          <mxGeometry x="-370" y="570" width="150" height="80" as="geometry" />
        </mxCell>
        <mxCell id="FrllIYIqwDFJwszf7kwl-24" style="edgeStyle=orthogonalEdgeStyle;rounded=0;sketch=0;orthogonalLoop=1;jettySize=auto;html=1;entryX=0.5;entryY=0;entryDx=0;entryDy=0;shadow=0;fontSize=10;endArrow=classic;endFill=1;entryPerimeter=0;" edge="1" parent="1" source="FrllIYIqwDFJwszf7kwl-14" target="FrllIYIqwDFJwszf7kwl-23">
          <mxGeometry relative="1" as="geometry">
            <mxPoint x="-272" y="490" as="targetPoint" />
          </mxGeometry>
        </mxCell>
        <mxCell id="FrllIYIqwDFJwszf7kwl-25" value="Update file path for this certification instance" style="whiteSpace=wrap;html=1;fontSize=10;fillColor=#FFFFFF;rounded=1;arcSize=14;strokeWidth=2;container=0;" vertex="1" parent="1">
          <mxGeometry x="-147" y="778" width="110" height="40" as="geometry" />
        </mxCell>
        <mxCell id="FrllIYIqwDFJwszf7kwl-26" style="edgeStyle=orthogonalEdgeStyle;rounded=0;sketch=0;orthogonalLoop=1;jettySize=auto;html=1;entryX=0.5;entryY=0;entryDx=0;entryDy=0;shadow=0;fontSize=10;endArrow=classic;endFill=1;" edge="1" parent="1" source="FrllIYIqwDFJwszf7kwl-21" target="FrllIYIqwDFJwszf7kwl-25">
          <mxGeometry relative="1" as="geometry" />
        </mxCell>
        <mxCell id="FrllIYIqwDFJwszf7kwl-29" value="" style="rounded=0;whiteSpace=wrap;html=1;fontSize=12;fillColor=#000000;container=0;" vertex="1" parent="1">
          <mxGeometry x="-557" y="390" width="110" height="5" as="geometry" />
        </mxCell>
        <mxCell id="FrllIYIqwDFJwszf7kwl-30" value="" style="verticalLabelPosition=bottom;verticalAlign=top;html=1;shape=mxgraph.flowchart.on-page_reference;fontSize=10;container=0;" vertex="1" parent="1">
          <mxGeometry x="-257" y="848" width="30" height="30" as="geometry" />
        </mxCell>
        <mxCell id="FrllIYIqwDFJwszf7kwl-31" style="edgeStyle=orthogonalEdgeStyle;rounded=0;sketch=0;orthogonalLoop=1;jettySize=auto;html=1;entryX=0;entryY=0.5;entryDx=0;entryDy=0;entryPerimeter=0;shadow=0;fontSize=10;endArrow=classic;endFill=1;exitX=0;exitY=0.5;exitDx=0;exitDy=0;exitPerimeter=0;" edge="1" parent="1" source="FrllIYIqwDFJwszf7kwl-23" target="FrllIYIqwDFJwszf7kwl-30">
          <mxGeometry relative="1" as="geometry">
            <Array as="points">
              <mxPoint x="-410" y="610" />
              <mxPoint x="-410" y="863" />
            </Array>
          </mxGeometry>
        </mxCell>
        <mxCell id="FrllIYIqwDFJwszf7kwl-32" value="" style="verticalLabelPosition=bottom;verticalAlign=top;html=1;shape=mxgraph.flowchart.on-page_reference;fontSize=10;fillColor=#000000;container=0;" vertex="1" parent="1">
          <mxGeometry x="-252" y="853" width="20" height="20" as="geometry" />
        </mxCell>
        <mxCell id="FrllIYIqwDFJwszf7kwl-33" value="Return attachment id" style="rounded=1;whiteSpace=wrap;html=1;absoluteArcSize=1;arcSize=14;strokeWidth=2;fontSize=10;fillColor=#FFFFFF;container=0;" vertex="1" parent="1">
          <mxGeometry x="-692" y="585" width="110" height="50" as="geometry" />
        </mxCell>
        <mxCell id="FrllIYIqwDFJwszf7kwl-34" style="edgeStyle=orthogonalEdgeStyle;rounded=0;sketch=0;orthogonalLoop=1;jettySize=auto;html=1;entryX=1;entryY=0.5;entryDx=0;entryDy=0;entryPerimeter=0;shadow=0;fontSize=10;endArrow=classic;endFill=1;exitX=0.5;exitY=1;exitDx=0;exitDy=0;" edge="1" parent="1" source="FrllIYIqwDFJwszf7kwl-25" target="FrllIYIqwDFJwszf7kwl-30">
          <mxGeometry relative="1" as="geometry" />
        </mxCell>
        <mxCell id="FrllIYIqwDFJwszf7kwl-40" style="edgeStyle=none;rounded=0;orthogonalLoop=1;jettySize=auto;html=1;entryX=0.5;entryY=0;entryDx=0;entryDy=0;entryPerimeter=0;fontSize=10;endArrow=classic;endFill=1;" edge="1" parent="1" source="FrllIYIqwDFJwszf7kwl-33" target="FrllIYIqwDFJwszf7kwl-36">
          <mxGeometry relative="1" as="geometry">
            <mxPoint x="-632" y="800" as="targetPoint" />
          </mxGeometry>
        </mxCell>
        <mxCell id="FrllIYIqwDFJwszf7kwl-54" value="&lt;span style=&quot;font-size: 10px;&quot;&gt;Has source &lt;br&gt;generation task&lt;/span&gt;" style="strokeWidth=2;html=1;shape=mxgraph.flowchart.decision;whiteSpace=wrap;fontSize=12;fillColor=#FFFFFF;container=0;" vertex="1" parent="1">
          <mxGeometry x="-712" y="296" width="150" height="64" as="geometry" />
        </mxCell>
        <mxCell id="FrllIYIqwDFJwszf7kwl-58" style="edgeStyle=orthogonalEdgeStyle;rounded=0;orthogonalLoop=1;jettySize=auto;html=1;entryX=0.5;entryY=0;entryDx=0;entryDy=0;entryPerimeter=0;" edge="1" parent="1" source="FrllIYIqwDFJwszf7kwl-59" target="FrllIYIqwDFJwszf7kwl-54">
          <mxGeometry relative="1" as="geometry" />
        </mxCell>
        <mxCell id="FrllIYIqwDFJwszf7kwl-59" value="save record into db" style="whiteSpace=wrap;html=1;fontSize=10;fillColor=#FFFFFF;rounded=1;arcSize=14;strokeWidth=2;container=0;" vertex="1" parent="1">
          <mxGeometry x="-692" y="230" width="110" height="40" as="geometry" />
        </mxCell>
        <mxCell id="FrllIYIqwDFJwszf7kwl-60" style="edgeStyle=orthogonalEdgeStyle;rounded=0;orthogonalLoop=1;jettySize=auto;html=1;entryX=0.5;entryY=0;entryDx=0;entryDy=0;exitX=1;exitY=0.5;exitDx=0;exitDy=0;exitPerimeter=0;" edge="1" parent="1" source="FrllIYIqwDFJwszf7kwl-54" target="FrllIYIqwDFJwszf7kwl-29">
          <mxGeometry relative="1" as="geometry">
            <mxPoint x="-502" y="420" as="sourcePoint" />
          </mxGeometry>
        </mxCell>
        <mxCell id="FrllIYIqwDFJwszf7kwl-62" value="" style="group" vertex="1" connectable="0" parent="1">
          <mxGeometry x="690" y="680" width="30" height="30" as="geometry" />
        </mxCell>
        <mxCell id="FrllIYIqwDFJwszf7kwl-56" value="" style="verticalLabelPosition=bottom;verticalAlign=top;html=1;shape=mxgraph.flowchart.on-page_reference;fontSize=10;container=0;" vertex="1" parent="FrllIYIqwDFJwszf7kwl-62">
          <mxGeometry width="30" height="30" as="geometry" />
        </mxCell>
        <mxCell id="FrllIYIqwDFJwszf7kwl-57" value="" style="verticalLabelPosition=bottom;verticalAlign=top;html=1;shape=mxgraph.flowchart.on-page_reference;fontSize=10;fillColor=#000000;container=0;" vertex="1" parent="FrllIYIqwDFJwszf7kwl-62">
          <mxGeometry x="5" y="5" width="20" height="20" as="geometry" />
        </mxCell>
        <mxCell id="FrllIYIqwDFJwszf7kwl-64" value="" style="group" vertex="1" connectable="0" parent="1">
          <mxGeometry x="-652" y="688" width="30" height="30" as="geometry" />
        </mxCell>
        <mxCell id="FrllIYIqwDFJwszf7kwl-36" value="" style="verticalLabelPosition=bottom;verticalAlign=top;html=1;shape=mxgraph.flowchart.on-page_reference;fontSize=10;container=0;" vertex="1" parent="FrllIYIqwDFJwszf7kwl-64">
          <mxGeometry width="30" height="30" as="geometry" />
        </mxCell>
        <mxCell id="FrllIYIqwDFJwszf7kwl-37" value="" style="verticalLabelPosition=bottom;verticalAlign=top;html=1;shape=mxgraph.flowchart.on-page_reference;fontSize=10;fillColor=#000000;container=0;" vertex="1" parent="FrllIYIqwDFJwszf7kwl-64">
          <mxGeometry x="5" y="5" width="20" height="20" as="geometry" />
        </mxCell>
      </root>
    </mxGraphModel>
  </diagram>
</mxfile>
